<svg width="80" height="81" viewBox="0 0 80 81" fill="none" xmlns="http://www.w3.org/2000/svg">
<path d="M14.6501 1.67993C14.0501 1.67993 13.5701 2.15995 13.5701 2.75995C13.5701 3.35995 14.0501 3.83994 14.6501 3.83994C15.2501 3.83994 15.7301 3.35995 15.7301 2.75995C15.7301 2.15995 15.2501 1.67993 14.6501 1.67993Z" fill="#070E20"/>
<path d="M20.96 1.67993C20.36 1.67993 19.88 2.15995 19.88 2.75995C19.88 3.35995 20.36 3.83994 20.96 3.83994C21.56 3.83994 22.04 3.35995 22.04 2.75995C22.04 2.15995 21.56 1.67993 20.96 1.67993Z" fill="#070E20"/>
<path d="M27.2601 0.599976C26.0701 0.599976 25.1001 1.56998 25.1001 2.75998C25.1001 3.94998 26.0701 4.91998 27.2601 4.91998C28.4501 4.91998 29.4201 3.94998 29.4201 2.75998C29.4201 1.56998 28.4501 0.599976 27.2601 0.599976Z" fill="#070E20"/>
<path d="M33.57 0.599976C32.38 0.599976 31.41 1.56998 31.41 2.75998C31.41 3.94998 32.38 4.91998 33.57 4.91998C34.76 4.91998 35.73 3.94998 35.73 2.75998C35.73 1.56998 34.76 0.599976 33.57 0.599976Z" fill="#070E20"/>
<path d="M39.88 0.599976C38.69 0.599976 37.72 1.56998 37.72 2.75998C37.72 3.94998 38.69 4.91998 39.88 4.91998C41.07 4.91998 42.04 3.94998 42.04 2.75998C42.04 1.56998 41.07 0.599976 39.88 0.599976Z" fill="#070E20"/>
<path d="M52.49 1.67993C51.89 1.67993 51.41 2.15995 51.41 2.75995C51.41 3.35995 51.89 3.83994 52.49 3.83994C53.09 3.83994 53.57 3.35995 53.57 2.75995C53.57 2.15995 53.09 1.67993 52.49 1.67993Z" fill="#070E20"/>
<path d="M58.8 1.67993C58.2 1.67993 57.72 2.15995 57.72 2.75995C57.72 3.35995 58.2 3.83994 58.8 3.83994C59.4 3.83994 59.88 3.35995 59.88 2.75995C59.88 2.15995 59.4 1.67993 58.8 1.67993Z" fill="#070E20"/>
<path d="M65.11 0.599976C63.92 0.599976 62.9501 1.56998 62.9501 2.75998C62.9501 3.94998 63.92 4.91998 65.11 4.91998C66.3 4.91998 67.2701 3.94998 67.2701 2.75998C67.2701 1.56998 66.3 0.599976 65.11 0.599976Z" fill="#070E20"/>
<path d="M71.41 0.599976C70.22 0.599976 69.25 1.56998 69.25 2.75998C69.25 3.94998 70.22 4.91998 71.41 4.91998C72.6 4.91998 73.57 3.94998 73.57 2.75998C73.57 1.56998 72.6 0.599976 71.41 0.599976Z" fill="#070E20"/>
<path d="M77.7201 0.599976C76.5301 0.599976 75.5601 1.56998 75.5601 2.75998C75.5601 3.94998 76.5301 4.91998 77.7201 4.91998C78.9101 4.91998 79.8801 3.94998 79.8801 2.75998C79.8801 1.56998 78.9101 0.599976 77.7201 0.599976Z" fill="#070E20"/>
<path d="M33.57 6.91003C32.38 6.91003 31.41 7.88004 31.41 9.07004C31.41 10.26 32.38 11.23 33.57 11.23C34.76 11.23 35.73 10.26 35.73 9.07004C35.73 7.88004 34.76 6.91003 33.57 6.91003Z" fill="#070E20"/>
<path d="M39.88 6.91003C38.69 6.91003 37.72 7.88004 37.72 9.07004C37.72 10.26 38.69 11.23 39.88 11.23C41.07 11.23 42.04 10.26 42.04 9.07004C42.04 7.88004 41.07 6.91003 39.88 6.91003Z" fill="#070E20"/>
<path d="M71.41 6.91003C70.22 6.91003 69.25 7.88004 69.25 9.07004C69.25 10.26 70.22 11.23 71.41 11.23C72.6 11.23 73.57 10.26 73.57 9.07004C73.57 7.88004 72.6 6.91003 71.41 6.91003Z" fill="#070E20"/>
<path d="M77.7201 6.91003C76.5301 6.91003 75.5601 7.88004 75.5601 9.07004C75.5601 10.26 76.5301 11.23 77.7201 11.23C78.9101 11.23 79.8801 10.26 79.8801 9.07004C79.8801 7.88004 78.9101 6.91003 77.7201 6.91003Z" fill="#070E20"/>
<path d="M27.2601 13.22C26.0701 13.22 25.1001 14.19 25.1001 15.38C25.1001 16.57 26.0701 17.54 27.2601 17.54C28.4501 17.54 29.4201 16.57 29.4201 15.38C29.4201 14.19 28.4501 13.22 27.2601 13.22Z" fill="#070E20"/>
<path d="M39.88 13.22C38.69 13.22 37.72 14.19 37.72 15.38C37.72 16.57 38.69 17.54 39.88 17.54C41.07 17.54 42.04 16.57 42.04 15.38C42.04 14.19 41.07 13.22 39.88 13.22Z" fill="#070E20"/>
<path d="M65.11 13.22C63.92 13.22 62.9501 14.19 62.9501 15.38C62.9501 16.57 63.92 17.54 65.11 17.54C66.3 17.54 67.2701 16.57 67.2701 15.38C67.2701 14.19 66.3 13.22 65.11 13.22Z" fill="#070E20"/>
<path d="M77.7201 13.22C76.5301 13.22 75.5601 14.19 75.5601 15.38C75.5601 16.57 76.5301 17.54 77.7201 17.54C78.9101 17.54 79.8801 16.57 79.8801 15.38C79.8801 14.19 78.9101 13.22 77.7201 13.22Z" fill="#070E20"/>
<path d="M20.9601 19.52C19.7701 19.52 18.8 20.49 18.8 21.68C18.8 22.87 19.7701 23.84 20.9601 23.84C22.1501 23.84 23.12 22.87 23.12 21.68C23.12 20.49 22.1501 19.52 20.9601 19.52Z" fill="#070E20"/>
<path d="M39.8801 20.6C39.2801 20.6 38.8 21.08 38.8 21.68C38.8 22.28 39.2801 22.76 39.8801 22.76C40.4801 22.76 40.9601 22.28 40.9601 21.68C40.9601 21.08 40.4801 20.6 39.8801 20.6Z" fill="#070E20"/>
<path d="M58.8 19.52C57.61 19.52 56.64 20.49 56.64 21.68C56.64 22.87 57.61 23.84 58.8 23.84C59.99 23.84 60.96 22.87 60.96 21.68C60.96 20.49 59.99 19.52 58.8 19.52Z" fill="#070E20"/>
<path d="M77.72 20.6C77.12 20.6 76.64 21.08 76.64 21.68C76.64 22.28 77.12 22.76 77.72 22.76C78.32 22.76 78.8 22.28 78.8 21.68C78.8 21.08 78.32 20.6 77.72 20.6Z" fill="#070E20"/>
<path d="M14.65 25.83C13.46 25.83 12.49 26.8 12.49 27.99C12.49 29.18 13.46 30.15 14.65 30.15C15.84 30.15 16.81 29.18 16.81 27.99C16.81 26.8 15.84 25.83 14.65 25.83Z" fill="#070E20"/>
<path d="M39.8801 26.91C39.2801 26.91 38.8 27.39 38.8 27.99C38.8 28.59 39.2801 29.07 39.8801 29.07C40.4801 29.07 40.9601 28.59 40.9601 27.99C40.9601 27.39 40.4801 26.91 39.8801 26.91Z" fill="#070E20"/>
<path d="M52.4901 25.83C51.3001 25.83 50.3301 26.8 50.3301 27.99C50.3301 29.18 51.3001 30.15 52.4901 30.15C53.6801 30.15 54.6501 29.18 54.6501 27.99C54.6501 26.8 53.6801 25.83 52.4901 25.83Z" fill="#070E20"/>
<path d="M77.72 26.91C77.12 26.91 76.64 27.39 76.64 27.99C76.64 28.59 77.12 29.07 77.72 29.07C78.32 29.07 78.8 28.59 78.8 27.99C78.8 27.39 78.32 26.91 77.72 26.91Z" fill="#070E20"/>
<path d="M8.34001 33.22C7.74001 33.22 7.26001 33.7 7.26001 34.3C7.26001 34.9 7.74001 35.38 8.34001 35.38C8.94001 35.38 9.42001 34.9 9.42001 34.3C9.42001 33.7 8.94001 33.22 8.34001 33.22Z" fill="#070E20"/>
<path d="M46.18 32.14C44.99 32.14 44.02 33.11 44.02 34.3C44.02 35.49 44.99 36.46 46.18 36.46C47.37 36.46 48.34 35.49 48.34 34.3C48.34 33.11 47.37 32.14 46.18 32.14Z" fill="#070E20"/>
<path d="M2.02998 40.0601C1.72998 40.0601 1.48999 40.3001 1.48999 40.6001C1.48999 40.9001 1.72998 41.1401 2.02998 41.1401C2.32998 41.1401 2.56999 40.9001 2.56999 40.6001C2.56999 40.3001 2.32998 40.0601 2.02998 40.0601Z" fill="#070E20"/>
<path d="M39.8801 39.52C39.2801 39.52 38.8 40 38.8 40.6C38.8 41.2 39.2801 41.68 39.8801 41.68C40.4801 41.68 40.9601 41.2 40.9601 40.6C40.9601 40 40.4801 39.52 39.8801 39.52Z" fill="#070E20"/>
<path d="M52.49 39.52C51.89 39.52 51.41 40 51.41 40.6C51.41 41.2 51.89 41.68 52.49 41.68C53.09 41.68 53.57 41.2 53.57 40.6C53.57 40 53.09 39.52 52.49 39.52Z" fill="#070E20"/>
<path d="M58.8 39.52C58.2 39.52 57.72 40 57.72 40.6C57.72 41.2 58.2 41.68 58.8 41.68C59.4 41.68 59.88 41.2 59.88 40.6C59.88 40 59.4 39.52 58.8 39.52Z" fill="#070E20"/>
<path d="M65.11 39.52C64.51 39.52 64.03 40 64.03 40.6C64.03 41.2 64.51 41.68 65.11 41.68C65.71 41.68 66.19 41.2 66.19 40.6C66.19 40 65.71 39.52 65.11 39.52Z" fill="#070E20"/>
<path d="M71.41 38.45C70.22 38.45 69.25 39.4199 69.25 40.6099C69.25 41.7999 70.22 42.7699 71.41 42.7699C72.6 42.7699 73.57 41.7999 73.57 40.6099C73.57 39.4199 72.6 38.45 71.41 38.45Z" fill="#070E20"/>
<path d="M77.7201 38.45C76.5301 38.45 75.5601 39.4199 75.5601 40.6099C75.5601 41.7999 76.5301 42.7699 77.7201 42.7699C78.9101 42.7699 79.8801 41.7999 79.8801 40.6099C79.8801 39.4199 78.9101 38.45 77.7201 38.45Z" fill="#070E20"/>
<path d="M33.57 46.37C33.27 46.37 33.03 46.61 33.03 46.91C33.03 47.21 33.27 47.45 33.57 47.45C33.87 47.45 34.11 47.21 34.11 46.91C34.11 46.61 33.87 46.37 33.57 46.37Z" fill="#070E20"/>
<path d="M71.41 44.75C70.22 44.75 69.25 45.72 69.25 46.91C69.25 48.1 70.22 49.07 71.41 49.07C72.6 49.07 73.57 48.1 73.57 46.91C73.57 45.72 72.6 44.75 71.41 44.75Z" fill="#070E20"/>
<path d="M77.7201 44.75C76.5301 44.75 75.5601 45.72 75.5601 46.91C75.5601 48.1 76.5301 49.07 77.7201 49.07C78.9101 49.07 79.8801 48.1 79.8801 46.91C79.8801 45.72 78.9101 44.75 77.7201 44.75Z" fill="#070E20"/>
<path d="M65.11 51.0601C63.92 51.0601 62.9501 52.0301 62.9501 53.2201C62.9501 54.4101 63.92 55.3801 65.11 55.3801C66.3 55.3801 67.2701 54.4101 67.2701 53.2201C67.2701 52.0301 66.3 51.0601 65.11 51.0601Z" fill="#070E20"/>
<path d="M77.7201 51.0601C76.5301 51.0601 75.5601 52.0301 75.5601 53.2201C75.5601 54.4101 76.5301 55.3801 77.7201 55.3801C78.9101 55.3801 79.8801 54.4101 79.8801 53.2201C79.8801 52.0301 78.9101 51.0601 77.7201 51.0601Z" fill="#070E20"/>
<path d="M58.8 57.37C57.61 57.37 56.64 58.34 56.64 59.53C56.64 60.72 57.61 61.69 58.8 61.69C59.99 61.69 60.96 60.72 60.96 59.53C60.96 58.34 59.99 57.37 58.8 57.37Z" fill="#070E20"/>
<path d="M77.72 58.45C77.12 58.45 76.64 58.9299 76.64 59.5299C76.64 60.1299 77.12 60.6099 77.72 60.6099C78.32 60.6099 78.8 60.1299 78.8 59.5299C78.8 58.9299 78.32 58.45 77.72 58.45Z" fill="#070E20"/>
<path d="M52.4901 63.6799C51.3001 63.6799 50.3301 64.6499 50.3301 65.8399C50.3301 67.0299 51.3001 67.9999 52.4901 67.9999C53.6801 67.9999 54.6501 67.0299 54.6501 65.8399C54.6501 64.6499 53.6801 63.6799 52.4901 63.6799Z" fill="#070E20"/>
<path d="M77.72 64.75C77.12 64.75 76.64 65.23 76.64 65.83C76.64 66.43 77.12 66.91 77.72 66.91C78.32 66.91 78.8 66.43 78.8 65.83C78.8 65.23 78.32 64.75 77.72 64.75Z" fill="#070E20"/>
<path d="M46.1801 71.0601C45.5801 71.0601 45.1001 71.5401 45.1001 72.1401C45.1001 72.7401 45.5801 73.2201 46.1801 73.2201C46.7801 73.2201 47.2601 72.7401 47.2601 72.1401C47.2601 71.5401 46.7801 71.0601 46.1801 71.0601Z" fill="#070E20"/>
<path d="M39.8801 77.91C39.5801 77.91 39.3401 78.15 39.3401 78.45C39.3401 78.75 39.5801 78.99 39.8801 78.99C40.1801 78.99 40.4201 78.75 40.4201 78.45C40.4201 78.15 40.1801 77.91 39.8801 77.91Z" fill="#070E20"/>
</svg>
