<svg width="80" height="80" viewBox="0 0 80 80" fill="none" xmlns="http://www.w3.org/2000/svg">
<path d="M58.9178 1.62C58.6178 1.62 58.3778 1.86 58.3778 2.16C58.3778 2.46 58.6178 2.7 58.9178 2.7C59.2178 2.7 59.4578 2.46 59.4578 2.16C59.4578 1.86 59.2178 1.62 58.9178 1.62Z" fill="#070E20"/>
<path d="M52.6087 7.39001C52.0087 7.39001 51.5287 7.87002 51.5287 8.47002C51.5287 9.07002 52.0087 9.55001 52.6087 9.55001C53.2087 9.55001 53.6887 9.07002 53.6887 8.47002C53.6887 7.87002 53.2087 7.39001 52.6087 7.39001Z" fill="#070E20"/>
<path d="M46.3095 13.6899C45.7095 13.6899 45.2295 14.1699 45.2295 14.7699C45.2295 15.3699 45.7095 15.8499 46.3095 15.8499C46.9095 15.8499 47.3895 15.3699 47.3895 14.7699C47.3895 14.1699 46.9095 13.6899 46.3095 13.6899Z" fill="#070E20"/>
<path d="M40.0003 18.92C38.8103 18.92 37.8403 19.89 37.8403 21.08C37.8403 22.27 38.8103 23.24 40.0003 23.24C41.1903 23.24 42.1603 22.27 42.1603 21.08C42.1603 19.89 41.1903 18.92 40.0003 18.92Z" fill="#070E20"/>
<path d="M33.6911 25.23C32.5011 25.23 31.5311 26.2 31.5311 27.39C31.5311 28.58 32.5011 29.55 33.6911 29.55C34.8811 29.55 35.8511 28.58 35.8511 27.39C35.8511 26.2 34.8811 25.23 33.6911 25.23Z" fill="#070E20"/>
<path d="M27.3918 32.61C26.7918 32.61 26.3118 33.09 26.3118 33.69C26.3118 34.29 26.7918 34.77 27.3918 34.77C27.9918 34.77 28.4718 34.29 28.4718 33.69C28.4718 33.09 27.9918 32.61 27.3918 32.61Z" fill="#070E20"/>
<path d="M33.691 32.61C33.091 32.61 32.611 33.09 32.611 33.69C32.611 34.29 33.091 34.77 33.691 34.77C34.291 34.77 34.771 34.29 34.771 33.69C34.771 33.09 34.291 32.61 33.691 32.61Z" fill="#070E20"/>
<path d="M40.0003 31.54C38.8103 31.54 37.8403 32.51 37.8403 33.7C37.8403 34.89 38.8103 35.86 40.0003 35.86C41.1903 35.86 42.1603 34.89 42.1603 33.7C42.1603 32.51 41.1903 31.54 40.0003 31.54Z" fill="#070E20"/>
<path d="M46.3095 31.54C45.1195 31.54 44.1495 32.51 44.1495 33.7C44.1495 34.89 45.1195 35.86 46.3095 35.86C47.4995 35.86 48.4695 34.89 48.4695 33.7C48.4695 32.51 47.4995 31.54 46.3095 31.54Z" fill="#070E20"/>
<path d="M52.6087 31.54C51.4187 31.54 50.4487 32.51 50.4487 33.7C50.4487 34.89 51.4187 35.86 52.6087 35.86C53.7987 35.86 54.7687 34.89 54.7687 33.7C54.7687 32.51 53.7987 31.54 52.6087 31.54Z" fill="#070E20"/>
<path d="M58.9179 31.54C57.7279 31.54 56.7579 32.51 56.7579 33.7C56.7579 34.89 57.7279 35.86 58.9179 35.86C60.1079 35.86 61.0779 34.89 61.0779 33.7C61.0779 32.51 60.1079 31.54 58.9179 31.54Z" fill="#070E20"/>
<path d="M65.2271 32.61C64.6271 32.61 64.1471 33.09 64.1471 33.69C64.1471 34.29 64.6271 34.77 65.2271 34.77C65.8271 34.77 66.3071 34.29 66.3071 33.69C66.3071 33.09 65.8271 32.61 65.2271 32.61Z" fill="#070E20"/>
<path d="M58.9179 37.84C57.7279 37.84 56.7579 38.81 56.7579 40C56.7579 41.19 57.7279 42.16 58.9179 42.16C60.1079 42.16 61.0779 41.19 61.0779 40C61.0779 38.81 60.1079 37.84 58.9179 37.84Z" fill="#070E20"/>
<path d="M21.0827 45.77C20.7827 45.77 20.5427 46.01 20.5427 46.31C20.5427 46.61 20.7827 46.85 21.0827 46.85C21.3827 46.85 21.6227 46.61 21.6227 46.31C21.6227 46.01 21.3827 45.77 21.0827 45.77Z" fill="#070E20"/>
<path d="M52.6087 44.15C51.4187 44.15 50.4487 45.12 50.4487 46.31C50.4487 47.5 51.4187 48.47 52.6087 48.47C53.7987 48.47 54.7687 47.5 54.7687 46.31C54.7687 45.12 53.7987 44.15 52.6087 44.15Z" fill="#070E20"/>
<path d="M21.0827 51.54C20.4827 51.54 20.0027 52.02 20.0027 52.62C20.0027 53.22 20.4827 53.7 21.0827 53.7C21.6827 53.7 22.1627 53.22 22.1627 52.62C22.1627 52.02 21.6827 51.54 21.0827 51.54Z" fill="#070E20"/>
<path d="M46.3095 50.46C45.1195 50.46 44.1495 51.43 44.1495 52.62C44.1495 53.81 45.1195 54.78 46.3095 54.78C47.4995 54.78 48.4695 53.81 48.4695 52.62C48.4695 51.43 47.4995 50.46 46.3095 50.46Z" fill="#070E20"/>
<path d="M21.0827 56.77C19.8927 56.77 18.9227 57.74 18.9227 58.93C18.9227 60.12 19.8927 61.09 21.0827 61.09C22.2727 61.09 23.2427 60.12 23.2427 58.93C23.2427 57.74 22.2727 56.77 21.0827 56.77Z" fill="#070E20"/>
<path d="M40.0002 57.84C39.4002 57.84 38.9202 58.32 38.9202 58.92C38.9202 59.52 39.4002 60 40.0002 60C40.6002 60 41.0802 59.52 41.0802 58.92C41.0802 58.32 40.6002 57.84 40.0002 57.84Z" fill="#070E20"/>
<path d="M21.0827 63.0699C19.8927 63.0699 18.9227 64.0399 18.9227 65.2299C18.9227 66.42 19.8927 67.3899 21.0827 67.3899C22.2727 67.3899 23.2427 66.42 23.2427 65.2299C23.2427 64.0399 22.2727 63.0699 21.0827 63.0699Z" fill="#070E20"/>
<path d="M33.6911 63.0699C32.5011 63.0699 31.5311 64.0399 31.5311 65.2299C31.5311 66.42 32.5011 67.3899 33.6911 67.3899C34.8811 67.3899 35.8511 66.42 35.8511 65.2299C35.8511 64.0399 34.8811 63.0699 33.6911 63.0699Z" fill="#070E20"/>
<path d="M21.0827 69.38C19.8927 69.38 18.9227 70.35 18.9227 71.54C18.9227 72.73 19.8927 73.7 21.0827 73.7C22.2727 73.7 23.2427 72.73 23.2427 71.54C23.2427 70.35 22.2727 69.38 21.0827 69.38Z" fill="#070E20"/>
<path d="M27.3919 69.38C26.2019 69.38 25.2319 70.35 25.2319 71.54C25.2319 72.73 26.2019 73.7 27.3919 73.7C28.5819 73.7 29.5519 72.73 29.5519 71.54C29.5519 70.35 28.5819 69.38 27.3919 69.38Z" fill="#070E20"/>
<path d="M21.0827 75.6899C19.8927 75.6899 18.9227 76.6599 18.9227 77.8499C18.9227 79.0399 19.8927 80.0099 21.0827 80.0099C22.2727 80.0099 23.2427 79.0399 23.2427 77.8499C23.2427 76.6599 22.2727 75.6899 21.0827 75.6899Z" fill="#070E20"/>
<path d="M27.3919 75.6899C26.2019 75.6899 25.2319 76.6599 25.2319 77.8499C25.2319 79.0399 26.2019 80.0099 27.3919 80.0099C28.5819 80.0099 29.5519 79.0399 29.5519 77.8499C29.5519 76.6599 28.5819 75.6899 27.3919 75.6899Z" fill="#070E20"/>
<path d="M33.6911 75.6899C32.5011 75.6899 31.5311 76.6599 31.5311 77.8499C31.5311 79.0399 32.5011 80.0099 33.6911 80.0099C34.8811 80.0099 35.8511 79.0399 35.8511 77.8499C35.8511 76.6599 34.8811 75.6899 33.6911 75.6899Z" fill="#070E20"/>
<path d="M40.0003 75.6899C38.8103 75.6899 37.8403 76.6599 37.8403 77.8499C37.8403 79.0399 38.8103 80.0099 40.0003 80.0099C41.1903 80.0099 42.1603 79.0399 42.1603 77.8499C42.1603 76.6599 41.1903 75.6899 40.0003 75.6899Z" fill="#070E20"/>
<path d="M46.3095 76.77C45.7095 76.77 45.2295 77.25 45.2295 77.85C45.2295 78.45 45.7095 78.93 46.3095 78.93C46.9095 78.93 47.3895 78.45 47.3895 77.85C47.3895 77.25 46.9095 76.77 46.3095 76.77Z" fill="#070E20"/>
<path d="M52.6086 77.3C52.3086 77.3 52.0686 77.54 52.0686 77.84C52.0686 78.14 52.3086 78.38 52.6086 78.38C52.9086 78.38 53.1486 78.14 53.1486 77.84C53.1486 77.54 52.9086 77.3 52.6086 77.3Z" fill="#070E20"/>
</svg>
