<svg width="80" height="80" viewBox="0 0 80 80" fill="none" xmlns="http://www.w3.org/2000/svg">
<path d="M2.165 14.23C1.865 14.23 1.625 14.47 1.625 14.77C1.625 15.07 1.865 15.31 2.165 15.31C2.465 15.31 2.705 15.07 2.705 14.77C2.705 14.47 2.465 14.23 2.165 14.23Z" fill="#070E20"/>
<path d="M8.46407 20.54C8.16407 20.54 7.92407 20.78 7.92407 21.08C7.92407 21.38 8.16407 21.62 8.46407 21.62C8.76407 21.62 9.00407 21.38 9.00407 21.08C9.00407 20.78 8.76407 20.54 8.46407 20.54Z" fill="#070E20"/>
<path d="M14.7734 26.3101C14.1734 26.3101 13.6934 26.7901 13.6934 27.3901C13.6934 27.9901 14.1734 28.4701 14.7734 28.4701C15.3734 28.4701 15.8534 27.9901 15.8534 27.3901C15.8534 26.7901 15.3734 26.3101 14.7734 26.3101Z" fill="#070E20"/>
<path d="M21.0824 32.6099C20.4824 32.6099 20.0024 33.0899 20.0024 33.6899C20.0024 34.2899 20.4824 34.7699 21.0824 34.7699C21.6824 34.7699 22.1624 34.2899 22.1624 33.6899C22.1624 33.0899 21.6824 32.6099 21.0824 32.6099Z" fill="#070E20"/>
<path d="M27.3919 37.8398C26.2019 37.8398 25.2319 38.8098 25.2319 39.9998C25.2319 41.1898 26.2019 42.1598 27.3919 42.1598C28.5819 42.1598 29.5519 41.1898 29.5519 39.9998C29.5519 38.8098 28.5819 37.8398 27.3919 37.8398Z" fill="#070E20"/>
<path d="M52.6086 39.46C52.3086 39.46 52.0686 39.7 52.0686 40C52.0686 40.3 52.3086 40.54 52.6086 40.54C52.9086 40.54 53.1486 40.3 53.1486 40C53.1486 39.7 52.9086 39.46 52.6086 39.46Z" fill="#070E20"/>
<path d="M58.9176 38.9199C58.3176 38.9199 57.8376 39.3999 57.8376 39.9999C57.8376 40.5999 58.3176 41.0799 58.9176 41.0799C59.5176 41.0799 59.9976 40.5999 59.9976 39.9999C59.9976 39.3999 59.5176 38.9199 58.9176 38.9199Z" fill="#070E20"/>
<path d="M65.2271 37.8398C64.0371 37.8398 63.0671 38.8098 63.0671 39.9998C63.0671 41.1898 64.0371 42.1598 65.2271 42.1598C66.4171 42.1598 67.3871 41.1898 67.3871 39.9998C67.3871 38.8098 66.4171 37.8398 65.2271 37.8398Z" fill="#070E20"/>
<path d="M71.5362 37.8398C70.3462 37.8398 69.3762 38.8098 69.3762 39.9998C69.3762 41.1898 70.3462 42.1598 71.5362 42.1598C72.7262 42.1598 73.6962 41.1898 73.6962 39.9998C73.6962 38.8098 72.7262 37.8398 71.5362 37.8398Z" fill="#070E20"/>
<path d="M77.8355 37.8398C76.6455 37.8398 75.6755 38.8098 75.6755 39.9998C75.6755 41.1898 76.6455 42.1598 77.8355 42.1598C79.0255 42.1598 79.9955 41.1898 79.9955 39.9998C79.9955 38.8098 79.0255 37.8398 77.8355 37.8398Z" fill="#070E20"/>
<path d="M33.691 44.1499C32.501 44.1499 31.531 45.1199 31.531 46.3099C31.531 47.4999 32.501 48.4699 33.691 48.4699C34.881 48.4699 35.851 47.4999 35.851 46.3099C35.851 45.1199 34.881 44.1499 33.691 44.1499Z" fill="#070E20"/>
<path d="M71.5362 44.1499C70.3462 44.1499 69.3762 45.1199 69.3762 46.3099C69.3762 47.4999 70.3462 48.4699 71.5362 48.4699C72.7262 48.4699 73.6962 47.4999 73.6962 46.3099C73.6962 45.1199 72.7262 44.1499 71.5362 44.1499Z" fill="#070E20"/>
<path d="M77.8355 44.1499C76.6455 44.1499 75.6755 45.1199 75.6755 46.3099C75.6755 47.4999 76.6455 48.4699 77.8355 48.4699C79.0255 48.4699 79.9955 47.4999 79.9955 46.3099C79.9955 45.1199 79.0255 44.1499 77.8355 44.1499Z" fill="#070E20"/>
<path d="M40.0003 50.46C38.8103 50.46 37.8403 51.43 37.8403 52.62C37.8403 53.81 38.8103 54.78 40.0003 54.78C41.1903 54.78 42.1603 53.81 42.1603 52.62C42.1603 51.43 41.1903 50.46 40.0003 50.46Z" fill="#070E20"/>
<path d="M65.2271 50.46C64.0371 50.46 63.0671 51.43 63.0671 52.62C63.0671 53.81 64.0371 54.78 65.2271 54.78C66.4171 54.78 67.3871 53.81 67.3871 52.62C67.3871 51.43 66.4171 50.46 65.2271 50.46Z" fill="#070E20"/>
<path d="M77.8355 50.46C76.6455 50.46 75.6755 51.43 75.6755 52.62C75.6755 53.81 76.6455 54.78 77.8355 54.78C79.0255 54.78 79.9955 53.81 79.9955 52.62C79.9955 51.43 79.0255 50.46 77.8355 50.46Z" fill="#070E20"/>
<path d="M46.3094 56.77C45.1194 56.77 44.1494 57.74 44.1494 58.93C44.1494 60.12 45.1194 61.09 46.3094 61.09C47.4994 61.09 48.4694 60.12 48.4694 58.93C48.4694 57.74 47.4994 56.77 46.3094 56.77Z" fill="#070E20"/>
<path d="M58.9178 56.77C57.7278 56.77 56.7578 57.74 56.7578 58.93C56.7578 60.12 57.7278 61.09 58.9178 61.09C60.1078 61.09 61.0778 60.12 61.0778 58.93C61.0778 57.74 60.1078 56.77 58.9178 56.77Z" fill="#070E20"/>
<path d="M77.8354 57.8398C77.2354 57.8398 76.7554 58.3198 76.7554 58.9198C76.7554 59.5198 77.2354 59.9998 77.8354 59.9998C78.4354 59.9998 78.9154 59.5198 78.9154 58.9198C78.9154 58.3198 78.4354 57.8398 77.8354 57.8398Z" fill="#070E20"/>
<path d="M77.8354 64.6899C77.5354 64.6899 77.2954 64.9299 77.2954 65.2299C77.2954 65.5299 77.5354 65.7699 77.8354 65.7699C78.1354 65.7699 78.3754 65.5299 78.3754 65.2299C78.3754 64.9299 78.1354 64.6899 77.8354 64.6899Z" fill="#070E20"/>
<path d="M52.6086 64.1499C52.0086 64.1499 51.5286 64.6299 51.5286 65.2299C51.5286 65.8299 52.0086 66.3099 52.6086 66.3099C53.2086 66.3099 53.6886 65.8299 53.6886 65.2299C53.6886 64.6299 53.2086 64.1499 52.6086 64.1499Z" fill="#070E20"/>
<path d="M2.165 77.2998C1.865 77.2998 1.625 77.5398 1.625 77.8398C1.625 78.1398 1.865 78.3798 2.165 78.3798C2.465 78.3798 2.705 78.1398 2.705 77.8398C2.705 77.5398 2.465 77.2998 2.165 77.2998Z" fill="#070E20"/>
<path d="M8.46407 77.2998C8.16407 77.2998 7.92407 77.5398 7.92407 77.8398C7.92407 78.1398 8.16407 78.3798 8.46407 78.3798C8.76407 78.3798 9.00407 78.1398 9.00407 77.8398C9.00407 77.5398 8.76407 77.2998 8.46407 77.2998Z" fill="#070E20"/>
<path d="M14.7732 77.2998C14.4732 77.2998 14.2332 77.5398 14.2332 77.8398C14.2332 78.1398 14.4732 78.3798 14.7732 78.3798C15.0732 78.3798 15.3132 78.1398 15.3132 77.8398C15.3132 77.5398 15.0732 77.2998 14.7732 77.2998Z" fill="#070E20"/>
<path d="M21.0824 76.77C20.4824 76.77 20.0024 77.25 20.0024 77.85C20.0024 78.45 20.4824 78.93 21.0824 78.93C21.6824 78.93 22.1624 78.45 22.1624 77.85C22.1624 77.25 21.6824 76.77 21.0824 76.77Z" fill="#070E20"/>
<path d="M27.3918 76.77C26.7918 76.77 26.3118 77.25 26.3118 77.85C26.3118 78.45 26.7918 78.93 27.3918 78.93C27.9918 78.93 28.4718 78.45 28.4718 77.85C28.4718 77.25 27.9918 76.77 27.3918 76.77Z" fill="#070E20"/>
<path d="M33.6908 76.77C33.0908 76.77 32.6108 77.25 32.6108 77.85C32.6108 78.45 33.0908 78.93 33.6908 78.93C34.2908 78.93 34.7708 78.45 34.7708 77.85C34.7708 77.25 34.2908 76.77 33.6908 76.77Z" fill="#070E20"/>
<path d="M40.0003 75.6899C38.8103 75.6899 37.8403 76.6599 37.8403 77.8499C37.8403 79.0399 38.8103 80.0099 40.0003 80.0099C41.1903 80.0099 42.1603 79.0399 42.1603 77.8499C42.1603 76.6599 41.1903 75.6899 40.0003 75.6899Z" fill="#070E20"/>
<path d="M46.3094 75.6899C45.1194 75.6899 44.1494 76.6599 44.1494 77.8499C44.1494 79.0399 45.1194 80.0099 46.3094 80.0099C47.4994 80.0099 48.4694 79.0399 48.4694 77.8499C48.4694 76.6599 47.4994 75.6899 46.3094 75.6899Z" fill="#070E20"/>
<path d="M52.6087 75.6899C51.4187 75.6899 50.4487 76.6599 50.4487 77.8499C50.4487 79.0399 51.4187 80.0099 52.6087 80.0099C53.7987 80.0099 54.7687 79.0399 54.7687 77.8499C54.7687 76.6599 53.7987 75.6899 52.6087 75.6899Z" fill="#070E20"/>
<path d="M58.9178 75.6899C57.7278 75.6899 56.7578 76.6599 56.7578 77.8499C56.7578 79.0399 57.7278 80.0099 58.9178 80.0099C60.1078 80.0099 61.0778 79.0399 61.0778 77.8499C61.0778 76.6599 60.1078 75.6899 58.9178 75.6899Z" fill="#070E20"/>
<path d="M65.2271 75.6899C64.0371 75.6899 63.0671 76.6599 63.0671 77.8499C63.0671 79.0399 64.0371 80.0099 65.2271 80.0099C66.4171 80.0099 67.3871 79.0399 67.3871 77.8499C67.3871 76.6599 66.4171 75.6899 65.2271 75.6899Z" fill="#070E20"/>
<path d="M71.5363 76.77C70.9363 76.77 70.4563 77.25 70.4563 77.85C70.4563 78.45 70.9363 78.93 71.5363 78.93C72.1363 78.93 72.6163 78.45 72.6163 77.85C72.6163 77.25 72.1363 76.77 71.5363 76.77Z" fill="#070E20"/>
<path d="M77.8354 77.2998C77.5354 77.2998 77.2954 77.5398 77.2954 77.8398C77.2954 78.1398 77.5354 78.3798 77.8354 78.3798C78.1354 78.3798 78.3754 78.1398 78.3754 77.8398C78.3754 77.5398 78.1354 77.2998 77.8354 77.2998Z" fill="#070E20"/>
</svg>
